<svg width="213" height="17" viewBox="0 0 213 17" fill="none" xmlns="http://www.w3.org/2000/svg">
<path d="M0.208 16V0.352H10.576V3.328H3.76V6.472H9.544V9.424H3.76V13.024H10.816V16H0.208ZM14.1186 16V4.096H16.9986L17.2626 5.68H17.3586C17.8706 5.168 18.4546 4.728 19.1106 4.36C19.7826 3.992 20.5666 3.808 21.4626 3.808C22.8066 3.808 23.7906 4.24 24.4146 5.104C25.0386 5.968 25.3506 7.152 25.3506 8.656V16H21.8226V9.112C21.8226 8.312 21.6946 7.728 21.4386 7.36C21.1826 6.992 20.7266 6.808 20.0706 6.808C19.5906 6.808 19.1666 6.912 18.7986 7.12C18.4466 7.328 18.0626 7.64 17.6466 8.056V16H14.1186ZM36.0933 16.288C35.1493 16.288 34.3493 16.16 33.6933 15.904C33.0373 15.648 32.5013 15.296 32.0853 14.848C31.6853 14.384 31.3973 13.832 31.2213 13.192C31.0453 12.552 30.9573 11.84 30.9573 11.056V6.856H27.9573V4.24L31.1253 4.096L31.5813 0.448H34.4853V4.096H39.5253V6.856H34.4853V11.032C34.4853 11.944 34.6853 12.592 35.0853 12.976C35.4853 13.344 36.1253 13.528 37.0053 13.528C37.4533 13.528 37.8613 13.488 38.2293 13.408C38.6133 13.328 38.9893 13.224 39.3573 13.096L39.9813 15.64C39.4533 15.8 38.8693 15.944 38.2293 16.072C37.6053 16.216 36.8933 16.288 36.0933 16.288ZM43.9559 16V4.096H46.8359L47.1239 6.688H47.1959C47.7879 5.712 48.4999 4.992 49.3319 4.528C50.1639 4.048 51.0599 3.808 52.0199 3.808C52.5479 3.808 52.9719 3.848 53.2919 3.928C53.6279 4.008 53.9719 4.128 54.3239 4.288L53.6039 7.24C53.2359 7.128 52.8999 7.048 52.5959 7C52.3079 6.936 51.9399 6.904 51.4919 6.904C50.7559 6.904 50.0279 7.12 49.3079 7.552C48.6039 7.984 47.9959 8.736 47.4839 9.808V16H43.9559ZM60.9385 16.288C60.3305 16.288 59.7865 16.192 59.3065 16C58.8265 15.824 58.4185 15.576 58.0825 15.256C57.7465 14.92 57.4825 14.536 57.2905 14.104C57.1145 13.672 57.0265 13.2 57.0265 12.688C57.0265 12.016 57.1705 11.432 57.4585 10.936C57.7465 10.424 58.2025 9.992 58.8265 9.64C59.4665 9.288 60.2825 9.008 61.2745 8.8C62.2665 8.576 63.4665 8.424 64.8745 8.344C64.8105 7.8 64.5705 7.376 64.1545 7.072C63.7545 6.768 63.1465 6.616 62.3305 6.616C61.7545 6.616 61.1705 6.72 60.5785 6.928C60.0025 7.12 59.3785 7.384 58.7065 7.72L57.4585 5.416C58.2745 4.952 59.1465 4.568 60.0745 4.264C61.0185 3.96 62.0025 3.808 63.0265 3.808C64.6905 3.808 66.0025 4.248 66.9625 5.128C67.9225 6.008 68.4025 7.36 68.4025 9.184V16H65.5225L65.2585 14.656H65.1625C64.5545 15.12 63.8905 15.512 63.1705 15.832C62.4505 16.136 61.7065 16.288 60.9385 16.288ZM62.0665 13.552C62.5945 13.552 63.0905 13.448 63.5545 13.24C64.0185 13.016 64.4585 12.744 64.8745 12.424V10.456C63.9945 10.504 63.2665 10.584 62.6905 10.696C62.1145 10.808 61.6585 10.952 61.3225 11.128C60.9865 11.288 60.7465 11.48 60.6025 11.704C60.4745 11.928 60.4105 12.168 60.4105 12.424C60.4105 12.808 60.5545 13.096 60.8425 13.288C61.1465 13.464 61.5545 13.552 62.0665 13.552ZM72.7371 16V4.096H75.6171L75.9051 6.688H75.9771C76.5691 5.712 77.2811 4.992 78.1131 4.528C78.9451 4.048 79.8411 3.808 80.8011 3.808C81.3291 3.808 81.7531 3.848 82.0731 3.928C82.4091 4.008 82.7531 4.128 83.1051 4.288L82.3851 7.24C82.0171 7.128 81.6811 7.048 81.3771 7C81.0891 6.936 80.7211 6.904 80.2731 6.904C79.5371 6.904 78.8091 7.12 78.0891 7.552C77.3851 7.984 76.7771 8.736 76.2651 9.808V16H72.7371ZM100.462 16V4.096H103.342L103.606 5.68H103.702C104.214 5.168 104.798 4.728 105.454 4.36C106.126 3.992 106.91 3.808 107.806 3.808C109.15 3.808 110.134 4.24 110.758 5.104C111.382 5.968 111.694 7.152 111.694 8.656V16H108.166V9.112C108.166 8.312 108.038 7.728 107.782 7.36C107.526 6.992 107.07 6.808 106.414 6.808C105.934 6.808 105.51 6.912 105.142 7.12C104.79 7.328 104.406 7.64 103.99 8.056V16H100.462ZM118.501 16.288C117.893 16.288 117.349 16.192 116.869 16C116.389 15.824 115.981 15.576 115.645 15.256C115.309 14.92 115.045 14.536 114.853 14.104C114.677 13.672 114.589 13.2 114.589 12.688C114.589 12.016 114.733 11.432 115.021 10.936C115.309 10.424 115.765 9.992 116.389 9.64C117.029 9.288 117.845 9.008 118.837 8.8C119.829 8.576 121.029 8.424 122.437 8.344C122.373 7.8 122.133 7.376 121.717 7.072C121.317 6.768 120.709 6.616 119.893 6.616C119.317 6.616 118.733 6.72 118.141 6.928C117.565 7.12 116.941 7.384 116.269 7.72L115.021 5.416C115.837 4.952 116.709 4.568 117.637 4.264C118.581 3.96 119.565 3.808 120.589 3.808C122.253 3.808 123.565 4.248 124.525 5.128C125.485 6.008 125.965 7.36 125.965 9.184V16H123.085L122.821 14.656H122.725C122.117 15.12 121.453 15.512 120.733 15.832C120.013 16.136 119.269 16.288 118.501 16.288ZM119.629 13.552C120.157 13.552 120.653 13.448 121.117 13.24C121.581 13.016 122.021 12.744 122.437 12.424V10.456C121.557 10.504 120.829 10.584 120.253 10.696C119.677 10.808 119.221 10.952 118.885 11.128C118.549 11.288 118.309 11.48 118.165 11.704C118.037 11.928 117.973 12.168 117.973 12.424C117.973 12.808 118.117 13.096 118.405 13.288C118.709 13.464 119.117 13.552 119.629 13.552ZM150.138 16.288C149.194 16.288 148.322 16.152 147.522 15.88C146.722 15.592 146.018 15.184 145.41 14.656C144.818 14.128 144.354 13.48 144.018 12.712C143.682 11.928 143.514 11.04 143.514 10.048C143.514 9.056 143.698 8.176 144.066 7.408C144.45 6.624 144.954 5.968 145.578 5.44C146.218 4.912 146.954 4.512 147.786 4.24C148.618 3.952 149.49 3.808 150.402 3.808C151.346 3.808 152.194 3.96 152.946 4.264C153.714 4.568 154.354 4.952 154.866 5.416L153.234 7.6C152.354 6.976 151.474 6.664 150.594 6.664C149.57 6.664 148.738 6.968 148.098 7.576C147.458 8.184 147.138 9.008 147.138 10.048C147.138 11.088 147.442 11.912 148.05 12.52C148.674 13.128 149.482 13.432 150.474 13.432C151.098 13.432 151.666 13.32 152.178 13.096C152.706 12.872 153.186 12.608 153.618 12.304L155.034 14.536C154.314 15.144 153.522 15.592 152.658 15.88C151.794 16.152 150.954 16.288 150.138 16.288ZM163.497 16.288C162.713 16.288 161.953 16.152 161.217 15.88C160.497 15.592 159.849 15.184 159.273 14.656C158.713 14.128 158.265 13.48 157.929 12.712C157.593 11.928 157.425 11.04 157.425 10.048C157.425 9.056 157.593 8.176 157.929 7.408C158.265 6.624 158.713 5.968 159.273 5.44C159.849 4.912 160.497 4.512 161.217 4.24C161.953 3.952 162.713 3.808 163.497 3.808C164.281 3.808 165.033 3.952 165.753 4.24C166.489 4.512 167.137 4.912 167.697 5.44C168.273 5.968 168.729 6.624 169.065 7.408C169.401 8.176 169.569 9.056 169.569 10.048C169.569 11.04 169.401 11.928 169.065 12.712C168.729 13.48 168.273 14.128 167.697 14.656C167.137 15.184 166.489 15.592 165.753 15.88C165.033 16.152 164.281 16.288 163.497 16.288ZM163.497 13.432C164.313 13.432 164.921 13.128 165.321 12.52C165.737 11.912 165.945 11.088 165.945 10.048C165.945 9.008 165.737 8.184 165.321 7.576C164.921 6.968 164.313 6.664 163.497 6.664C162.681 6.664 162.065 6.968 161.649 7.576C161.249 8.184 161.049 9.008 161.049 10.048C161.049 11.088 161.249 11.912 161.649 12.52C162.065 13.128 162.681 13.432 163.497 13.432ZM172.416 16V4.096H175.296L175.56 5.68H175.656C176.168 5.168 176.752 4.728 177.408 4.36C178.08 3.992 178.864 3.808 179.76 3.808C181.104 3.808 182.088 4.24 182.712 5.104C183.336 5.968 183.648 7.152 183.648 8.656V16H180.12V9.112C180.12 8.312 179.992 7.728 179.736 7.36C179.48 6.992 179.024 6.808 178.368 6.808C177.888 6.808 177.464 6.912 177.096 7.12C176.744 7.328 176.36 7.64 175.944 8.056V16H172.416ZM194.39 16.288C193.446 16.288 192.646 16.16 191.99 15.904C191.334 15.648 190.798 15.296 190.382 14.848C189.982 14.384 189.694 13.832 189.518 13.192C189.342 12.552 189.254 11.84 189.254 11.056V6.856H186.254V4.24L189.422 4.096L189.878 0.448H192.782V4.096H197.822V6.856H192.782V11.032C192.782 11.944 192.982 12.592 193.382 12.976C193.782 13.344 194.422 13.528 195.302 13.528C195.75 13.528 196.158 13.488 196.526 13.408C196.91 13.328 197.286 13.224 197.654 13.096L198.278 15.64C197.75 15.8 197.166 15.944 196.526 16.072C195.902 16.216 195.19 16.288 194.39 16.288ZM204.845 16.288C204.237 16.288 203.693 16.192 203.213 16C202.733 15.824 202.325 15.576 201.989 15.256C201.653 14.92 201.389 14.536 201.197 14.104C201.021 13.672 200.933 13.2 200.933 12.688C200.933 12.016 201.077 11.432 201.365 10.936C201.653 10.424 202.109 9.992 202.733 9.64C203.373 9.288 204.189 9.008 205.181 8.8C206.173 8.576 207.373 8.424 208.781 8.344C208.717 7.8 208.477 7.376 208.061 7.072C207.661 6.768 207.053 6.616 206.237 6.616C205.661 6.616 205.077 6.72 204.485 6.928C203.909 7.12 203.285 7.384 202.613 7.72L201.365 5.416C202.181 4.952 203.053 4.568 203.981 4.264C204.925 3.96 205.909 3.808 206.933 3.808C208.597 3.808 209.909 4.248 210.869 5.128C211.829 6.008 212.309 7.36 212.309 9.184V16H209.429L209.165 14.656H209.069C208.461 15.12 207.797 15.512 207.077 15.832C206.357 16.136 205.613 16.288 204.845 16.288ZM205.973 13.552C206.501 13.552 206.997 13.448 207.461 13.24C207.925 13.016 208.365 12.744 208.781 12.424V10.456C207.901 10.504 207.173 10.584 206.597 10.696C206.021 10.808 205.565 10.952 205.229 11.128C204.893 11.288 204.653 11.48 204.509 11.704C204.381 11.928 204.317 12.168 204.317 12.424C204.317 12.808 204.461 13.096 204.749 13.288C205.053 13.464 205.461 13.552 205.973 13.552Z" fill="#00696F"/>
</svg>
